# xmcd
#
# Track frame offsets: 
#        150
#        11059
#        19714
#        32908
#        44943
#        63968
#        77116
#        86419
#        97820
#        112147
#        123075
#        135430
#        147658
#        156935
#        166207
#        181231
#        193403
#        206843
#        213872
#        224045
#
# Disc length: 3117 seconds
#
# Revision: 0
# Processed by: cddbd v1.5.2PL0 Copyright (c) Steve Scherf et al.
# Submitted via: ExactAudioCopy v0.95b4
#
DISCID=290c2b14
DTITLE=Jack Bon - Live and acoustic
DYEAR=2007
DGENRE=Blues
TTITLE0=Statesboro blues
TTITLE1=Don't tear my clothes
TTITLE2=Soul of a man
TTITLE3=Yicky yicky yeah
TTITLE4=Mad man blues
TTITLE5=See that my grave is kept clean
TTITLE6=Hesitation blues
TTITLE7=You gotta move
TTITLE8=Cross road blues
TTITLE9=Drown in my own tears
TTITLE10=Drinkin' wine spo-de-o-de
TTITLE11=Malted milk
TTITLE12=Police dog blues
TTITLE13=Rosalyn
TTITLE14=Make me a pallet on your floor/I'm satisfied
TTITLE15=Bad moon rising
TTITLE16=Love in vain
TTITLE17=Mama don't
TTITLE18=Trouble in mind
TTITLE19=Catfish blues
EXTD=
EXTT0=
EXTT1=
EXTT2=
EXTT3=
EXTT4=
EXTT5=
EXTT6=
EXTT7=
EXTT8=
EXTT9=
EXTT10=
EXTT11=
EXTT12=
EXTT13=
EXTT14=
EXTT15=
EXTT16=
EXTT17=
EXTT18=
EXTT19=
PLAYORDER=
